<?xml version="1.0" standalone="no"?>
<!DOCTYPE svg PUBLIC "-//W3C//DTD SVG 20010904//EN"
 "http://www.w3.org/TR/2001/REC-SVG-20010904/DTD/svg10.dtd">
<svg version="1.0" xmlns="http://www.w3.org/2000/svg"
 width="800.000000pt" height="800.000000pt" viewBox="0 0 800.000000 800.000000"
 preserveAspectRatio="xMidYMid meet">
<metadata>
Created by potrace 1.11, written by Peter Selinger 2001-2013
</metadata>
<g transform="translate(0.000000,800.000000) scale(0.100000,-0.100000)"
fill="#000000" stroke="none">
<path d="M2520 5114 c-443 -63 -1140 -161 -1549 -219 -731 -103 -745 -105
-795 -135 -28 -17 -63 -40 -76 -51 -25 -19 -25 -19 -4 -25 20 -5 21 -14 27
-172 17 -448 20 -714 8 -722 -10 -5 -11 -30 -6 -99 7 -83 10 -93 34 -110 26
-18 111 -31 1846 -266 176 -24 1032 -141 1901 -260 l1581 -215 107 35 c61 21
321 139 613 280 280 134 765 367 1078 518 l570 274 3 566 2 567 -22 -9 c-13
-4 -120 -4 -238 0 -1265 49 -4224 159 -4250 158 -14 -1 -387 -53 -830 -115z
m-222 -806 c26 -26 5 -108 -26 -108 -21 0 -52 34 -52 56 0 54 45 85 78 52z
m202 -17 c24 -46 -7 -105 -49 -94 -32 8 -44 70 -19 101 16 19 56 14 68 -7z
m198 -13 c20 -20 15 -86 -8 -98 -44 -23 -85 34 -61 86 12 26 48 33 69 12z
m200 -20 c28 -28 5 -108 -30 -108 -21 0 -48 33 -48 57 0 54 46 83 78 51z m197
-12 c36 -26 17 -106 -26 -106 -46 0 -65 64 -29 100 24 24 30 24 55 6z m235
-42 c15 -40 -7 -79 -45 -79 -37 0 -55 39 -37 80 17 36 68 36 82 -1z m205 2
c34 -25 17 -106 -23 -106 -24 0 -52 31 -52 57 0 22 31 63 48 63 5 0 17 -6 27
-14z m223 -22 c38 -27 23 -104 -21 -104 -13 0 -28 5 -35 12 -17 17 -15 74 4
92 19 20 24 20 52 0z m-1464 -140 c19 -18 21 -75 4 -92 -46 -46 -106 41 -61
90 20 22 37 23 57 2z m198 -21 c38 -34 5 -113 -41 -98 -25 8 -43 46 -34 72 16
45 43 55 75 26z m199 -3 c14 -8 19 -21 19 -48 0 -43 -14 -62 -47 -62 -42 0
-58 65 -23 100 23 23 25 23 51 10z m207 -32 c17 -17 15 -73 -2 -88 -42 -34
-92 22 -68 75 13 27 49 34 70 13z m197 -22 c36 -26 17 -106 -26 -106 -46 0
-65 64 -29 100 24 24 30 24 55 6z m233 -38 c28 -59 -36 -117 -72 -66 -9 12
-16 29 -16 38 0 9 7 26 16 38 21 30 55 25 72 -10z m224 -23 c24 -53 -26 -109
-68 -75 -17 15 -19 71 -2 88 21 21 57 14 70 -13z m218 -14 c16 -30 12 -59 -10
-81 -24 -24 -34 -25 -54 -4 -19 18 -21 75 -4 92 18 18 56 14 68 -7z m-1482
-111 c31 0 32 -2 32 -40 0 -44 -9 -48 -79 -34 -28 6 -31 10 -31 46 0 37 2 40
23 34 12 -3 37 -6 55 -6z m232 -60 l0 -40 -60 0 -60 0 0 40 0 40 60 0 60 0 0
-40z m200 -20 l0 -40 -55 0 -55 0 0 40 0 40 55 0 55 0 0 -40z m200 -30 l0 -40
-55 0 -55 0 0 40 0 40 55 0 55 0 0 -40z m206 -2 c-3 -13 -6 -31 -6 -40 0 -15
-9 -18 -55 -18 l-55 0 0 40 0 40 61 0 c59 0 61 -1 55 -22z m221 -12 c1 -1 0
-19 -4 -39 -5 -34 -9 -37 -37 -37 -63 0 -76 9 -76 49 l0 38 58 -5 c31 -2 58
-5 59 -6z m223 -56 l0 -40 -60 0 -60 0 0 40 0 40 60 0 60 0 0 -40z m204 14
c10 -4 16 -18 16 -40 l0 -34 -55 0 -55 0 0 40 c0 40 0 40 39 40 22 0 46 -3 55
-6z"/>
</g>
</svg>
